# xmcd
#
# Track frame offsets:
#	150
#	21695
#	38172
#	55405
#	75507
#	94365
#	107820
#	129135
#	147680
#	164585
#	181177
#	221457
#
# Disc length: 3188 seconds
# Revision: 0
# Processed by: cddbd v1.5.2PL0 Copyright (c) Steve Scherf et al.
# Submitted via: dBpowerAMP V12.0
#
DISCID=ac0c720c
DTITLE=Various Artist - Double Live [Disc 2]
DYEAR=1998
DGENRE=Country
TTITLE0=Garth Brooks - Ain't Goin' Down ('Til the Sun Comes up)
TTITLE1=Garth Brooks - Rodeo
TTITLE2=Garth Brooks - The Beaches of Cheyenne
TTITLE3=Garth Brooks - Two Pina Coladas
TTITLE4=Trisha Yearwood - Wild as the Wind
TTITLE5=Garth Brooks - To Make You Feel My Love
TTITLE6=Garth Brooks - That Summer
TTITLE7=Garth Brooks - American Honky-Tonk Bar Association
TTITLE8=Garth Brooks - If Tomorrow Never Comes
TTITLE9=Garth Brooks - The Fever
TTITLE10=Garth Brooks - Friends In Low Places (The Long Version)
TTITLE11=Garth Brooks - The Dance
EXTD=
EXTT0=
EXTT1=
EXTT2=
EXTT3=
EXTT4=
EXTT5=
EXTT6=
EXTT7=
EXTT8=
EXTT9=
EXTT10=
EXTT11=
PLAYORDER=
